<svg xmlns="http://www.w3.org/2000/svg" viewBox="0 0 100 100" width="100" height="100">
  <defs>
    <clipPath id="clip1">
      <path d="M50 0 L0 50 L50 100 L50 50 Z"/>
    </clipPath>
    <clipPath id="clip2">
      <path d="M50 0 L100 50 L50 100 L50 50 Z"/>
    </clipPath>
    <clipPath id="clip3">
      <path d="M0 50 L50 100 L50 50 Z"/>
    </clipPath>
    <clipPath id="clip4">
      <path d="M100 50 L50 100 L50 50 Z"/>
    </clipPath>
  </defs>
  
  <!-- 四色星芒主体 -->
  <path d="M50 0 C30 20, 20 30, 0 50 C20 70, 30 80, 50 100 C70 80, 80 70, 100 50 C80 30, 70 20, 50 0 Z" 
        fill="#4285F4" clip-path="url(#clip1)"/>
  <path d="M50 0 C30 20, 20 30, 0 50 C20 70, 30 80, 50 100 C70 80, 80 70, 100 50 C80 30, 70 20, 50 0 Z" 
        fill="#EA4335" clip-path="url(#clip2)"/>
  <path d="M50 0 C30 20, 20 30, 0 50 C20 70, 30 80, 50 100 C70 80, 80 70, 100 50 C80 30, 70 20, 50 0 Z" 
        fill="#FBBC05" clip-path="url(#clip3)"/>
  <path d="M50 0 C30 20, 20 30, 0 50 C20 70, 30 80, 50 100 C70 80, 80 70, 100 50 C80 30, 70 20, 50 0 Z" 
        fill="#34A853" clip-path="url(#clip4)"/>
</svg>